<svg xmlns="http://www.w3.org/2000/svg" viewBox="0 0 160 160"><defs><radialGradient id="a"><stop stop-color="#67bed2" stop-opacity=".4"/><stop offset="1" stop-color="#67bed2" stop-opacity="0"/></radialGradient></defs><circle cx="80" cy="80" r="72" fill="url(#a)"/><path d="M80 16 119 39 139 80 119 121 80 144 41 121 21 80 41 39Z" fill="#273540" stroke="#b9b29b" stroke-width="2"/><path d="M80 31 94 63 128 80 94 96 80 129 66 96 32 80 66 63Z" fill="#5a666e" stroke="#d1bd8e" stroke-width="2"/><path d="M44 43 62 56M116 43 98 56M116 117 98 104M44 117 62 104" stroke="#d4c59d" stroke-width="5"/><circle cx="80" cy="80" r="23" fill="#102d3b" stroke="#88d7e8" stroke-width="3"/><circle cx="80" cy="80" r="11" fill="#d0f8ff"/><path d="M62 20 69 38M98 20 91 38M20 62 38 69M140 98 122 91M62 140 69 122M98 140 91 122" stroke="#97b4bf" stroke-width="3"/></svg>