<svg xmlns="http://www.w3.org/2000/svg" viewBox="0 0 160 160"><defs><radialGradient id="g"><stop stop-color="#a49cde" stop-opacity=".45"/><stop offset=".55" stop-color="#a49cde" stop-opacity=".13"/><stop offset="1" stop-color="#a49cde" stop-opacity="0"/></radialGradient><radialGradient id="s" cx="35%" cy="28%"><stop stop-color="#eef8ff"/><stop offset=".55" stop-color="#a49cde"/><stop offset="1" stop-color="#615d9f"/></radialGradient><clipPath id="c"><circle cx="80" cy="80" r="31"/></clipPath></defs><circle cx="80" cy="80" r="78" fill="url(#g)"/><ellipse cx="80" cy="80" rx="70" ry="17" fill="none" stroke="#bcade3" stroke-width="3" opacity=".5" transform="rotate(-35 80 80)"/><path d="M105 20 88 62M67 99 48 143" stroke="#d3e8fa" stroke-width="5" opacity=".6"/><circle cx="80" cy="80" r="31" fill="url(#s)" stroke="#a49cde" stroke-width="1.2"/><g clip-path="url(#c)"><path d="M100.4 103.4q4 -4 7 2" fill="none" stroke="#615d9f" stroke-width="1" opacity="0.23"/><path d="M53.9 64.3q5 -3 8 3" fill="none" stroke="#eef8ff" stroke-width="2" opacity="0.17"/><path d="M67.4 50.9q6 -2 9 4" fill="none" stroke="#eef8ff" stroke-width="3" opacity="0.17"/><path d="M109.9 85.1q7 -1 10 5" fill="none" stroke="#615d9f" stroke-width="1" opacity="0.23"/><path d="M83.8 111.0q8 0 11 2" fill="none" stroke="#eef8ff" stroke-width="2" opacity="0.17"/><path d="M49.0 86.3q9 1 12 3" fill="none" stroke="#eef8ff" stroke-width="3" opacity="0.17"/><path d="M85.4 51.3q10 2 13 4" fill="none" stroke="#615d9f" stroke-width="1" opacity="0.23"/><path d="M109.4 63.2q11 3 7 5" fill="none" stroke="#eef8ff" stroke-width="2" opacity="0.17"/><path d="M65.9 102.6q4 4 8 2" fill="none" stroke="#eef8ff" stroke-width="3" opacity="0.17"/><path d="M54.8 105.0q5 -4 9 3" fill="none" stroke="#615d9f" stroke-width="1" opacity="0.23"/><path d="M101.6 66.6q6 -3 10 4" fill="none" stroke="#eef8ff" stroke-width="2" opacity="0.17"/><path d="M98.8 50.1q7 -2 11 5" fill="none" stroke="#eef8ff" stroke-width="3" opacity="0.17"/><path d="M52.8 82.5q8 -1 12 2" fill="none" stroke="#615d9f" stroke-width="1" opacity="0.23"/><path d="M69.3 110.8q9 0 13 3" fill="none" stroke="#eef8ff" stroke-width="2" opacity="0.17"/><path d="M110.4 88.8q10 1 7 4" fill="none" stroke="#eef8ff" stroke-width="3" opacity="0.17"/><path d="M81.7 52.4q11 2 8 5" fill="none" stroke="#615d9f" stroke-width="1" opacity="0.23"/><path d="M49.1 61.1q4 3 9 2" fill="none" stroke="#eef8ff" stroke-width="2" opacity="0.17"/><path d="M87.4 100.7q5 4 10 3" fill="none" stroke="#eef8ff" stroke-width="3" opacity="0.17"/><path d="M108.7 106.5q6 -4 11 4" fill="none" stroke="#615d9f" stroke-width="1" opacity="0.23"/><path d="M64.1 69.0q7 -3 12 5" fill="none" stroke="#eef8ff" stroke-width="2" opacity="0.17"/><path d="M56.0 49.5q8 -2 13 2" fill="none" stroke="#eef8ff" stroke-width="3" opacity="0.17"/><path d="M103.0 79.8q9 -1 7 3" fill="none" stroke="#615d9f" stroke-width="1" opacity="0.23"/><path d="M97.1 110.4q10 0 8 4" fill="none" stroke="#eef8ff" stroke-width="2" opacity="0.17"/><path d="M51.9 91.3q11 1 9 5" fill="none" stroke="#eef8ff" stroke-width="3" opacity="0.17"/><path d="M71.2 53.7q4 2 10 2" fill="none" stroke="#615d9f" stroke-width="1" opacity="0.23"/><path d="M110.7 59.1q5 3 11 3" fill="none" stroke="#eef8ff" stroke-width="2" opacity="0.17"/><path d="M79.7 98.7q6 4 12 4" fill="none" stroke="#eef8ff" stroke-width="3" opacity="0.17"/><path d="M49.4 107.8q7 -4 13 5" fill="none" stroke="#615d9f" stroke-width="1" opacity="0.23"/><path d="M89.4 71.5q8 -3 7 2" fill="none" stroke="#eef8ff" stroke-width="2" opacity="0.17"/><path d="M107.8 49.1q9 -2 8 3" fill="none" stroke="#eef8ff" stroke-width="3" opacity="0.17"/><path d="M62.4 77.2q10 -1 9 4" fill="none" stroke="#615d9f" stroke-width="1" opacity="0.23"/><path d="M57.4 109.8q11 0 10 5" fill="none" stroke="#eef8ff" stroke-width="2" opacity="0.17"/><path d="M104.3 93.7q4 1 11 2" fill="none" stroke="#eef8ff" stroke-width="3" opacity="0.17"/><path d="M95.4 55.2q5 2 12 3" fill="none" stroke="#615d9f" stroke-width="1" opacity="0.23"/><path d="M51.1 57.2q6 3 13 4" fill="none" stroke="#eef8ff" stroke-width="2" opacity="0.17"/><path d="M73.2 96.5q7 4 7 5" fill="none" stroke="#eef8ff" stroke-width="3" opacity="0.17"/><path d="M110.9 108.8q8 -4 8 2" fill="none" stroke="#615d9f" stroke-width="1" opacity="0.23"/><path d="M77.7 74.1q9 -3 9 3" fill="none" stroke="#eef8ff" stroke-width="2" opacity="0.17"/><path d="M49.8 49.0q10 -2 10 4" fill="none" stroke="#eef8ff" stroke-width="3" opacity="0.17"/><path d="M91.3 74.6q11 -1 11 5" fill="none" stroke="#615d9f" stroke-width="1" opacity="0.23"/><path d="M106.9 109.0q4 0 12 2" fill="none" stroke="#eef8ff" stroke-width="2" opacity="0.17"/><path d="M60.8 96.0q5 1 13 3" fill="none" stroke="#eef8ff" stroke-width="3" opacity="0.17"/><path d="M58.8 56.8q6 2 7 4" fill="none" stroke="#615d9f" stroke-width="1" opacity="0.23"/><path d="M105.5 55.5q7 3 8 5" fill="none" stroke="#eef8ff" stroke-width="2" opacity="0.17"/><path d="M93.6 94.2q8 4 9 2" fill="none" stroke="#eef8ff" stroke-width="3" opacity="0.17"/><path d="M50.4 109.7q9 -4 10 3" fill="none" stroke="#615d9f" stroke-width="1" opacity="0.23"/><path d="M75.2 76.7q10 -3 11 4" fill="none" stroke="#eef8ff" stroke-width="2" opacity="0.17"/><path d="M111.0 49.1q11 -2 12 5" fill="none" stroke="#eef8ff" stroke-width="3" opacity="0.17"/><path d="M75.7 72.0q4 -1 13 2" fill="none" stroke="#615d9f" stroke-width="1" opacity="0.23"/><path d="M50.3 108.0q5 0 7 3" fill="none" stroke="#eef8ff" stroke-width="2" opacity="0.17"/></g></svg>