<svg xmlns="http://www.w3.org/2000/svg" viewBox="0 0 160 160"><defs><radialGradient id="g"><stop stop-color="#ca4b37" stop-opacity=".45"/><stop offset=".55" stop-color="#ca4b37" stop-opacity=".13"/><stop offset="1" stop-color="#ca4b37" stop-opacity="0"/></radialGradient><radialGradient id="s" cx="35%" cy="28%"><stop stop-color="#ffb592"/><stop offset=".55" stop-color="#ca4b37"/><stop offset="1" stop-color="#69283c"/></radialGradient><clipPath id="c"><circle cx="80" cy="80" r="28"/></clipPath></defs><circle cx="80" cy="80" r="78" fill="url(#g)"/><circle cx="80" cy="80" r="28" fill="url(#s)" stroke="#ca4b37" stroke-width="1.2"/><g clip-path="url(#c)"><path d="M105.5 68.3q4 -4 7 2" fill="none" stroke="#69283c" stroke-width="1" opacity="0.23"/><path d="M87.7 52.8q5 -3 8 3" fill="none" stroke="#ffb592" stroke-width="2" opacity="0.17"/><path d="M52.2 81.7q6 -2 9 4" fill="none" stroke="#ffb592" stroke-width="3" opacity="0.17"/><path d="M80.5 107.8q7 -1 10 5" fill="none" stroke="#69283c" stroke-width="1" opacity="0.23"/><path d="M107.6 88.5q8 0 11 2" fill="none" stroke="#ffb592" stroke-width="2" opacity="0.17"/><path d="M71.3 55.3q9 1 12 3" fill="none" stroke="#ffb592" stroke-width="3" opacity="0.17"/><path d="M55.0 62.5q10 2 13 4" fill="none" stroke="#69283c" stroke-width="1" opacity="0.23"/><path d="M96.1 98.3q11 3 7 5" fill="none" stroke="#ffb592" stroke-width="2" opacity="0.17"/><path d="M100.3 104.2q4 4 8 2" fill="none" stroke="#ffb592" stroke-width="3" opacity="0.17"/><path d="M57.9 70.6q5 -4 9 3" fill="none" stroke="#69283c" stroke-width="1" opacity="0.23"/><path d="M66.3 52.4q6 -3 10 4" fill="none" stroke="#ffb592" stroke-width="2" opacity="0.17"/><path d="M106.2 79.3q7 -2 11 5" fill="none" stroke="#ffb592" stroke-width="3" opacity="0.17"/><path d="M86.0 107.4q8 -1 12 2" fill="none" stroke="#69283c" stroke-width="1" opacity="0.23"/><path d="M52.1 90.7q9 0 13 3" fill="none" stroke="#ffb592" stroke-width="2" opacity="0.17"/><path d="M82.3 56.5q10 1 7 4" fill="none" stroke="#ffb592" stroke-width="3" opacity="0.17"/><path d="M107.3 60.7q11 2 8 5" fill="none" stroke="#69283c" stroke-width="1" opacity="0.23"/><path d="M69.6 96.4q4 3 9 2" fill="none" stroke="#ffb592" stroke-width="2" opacity="0.17"/><path d="M55.8 105.3q5 4 10 3" fill="none" stroke="#ffb592" stroke-width="3" opacity="0.17"/><path d="M97.6 72.8q6 -4 11 4" fill="none" stroke="#69283c" stroke-width="1" opacity="0.23"/><path d="M99.0 52.1q7 -3 12 5" fill="none" stroke="#ffb592" stroke-width="2" opacity="0.17"/><path d="M56.8 77.0q8 -2 13 2" fill="none" stroke="#ffb592" stroke-width="3" opacity="0.17"/><path d="M67.9 106.8q9 -1 7 3" fill="none" stroke="#69283c" stroke-width="1" opacity="0.23"/><path d="M106.8 92.9q10 0 8 4" fill="none" stroke="#ffb592" stroke-width="2" opacity="0.17"/><path d="M84.2 57.9q11 1 9 5" fill="none" stroke="#ffb592" stroke-width="3" opacity="0.17"/><path d="M52.0 59.1q4 2 10 2" fill="none" stroke="#69283c" stroke-width="1" opacity="0.23"/><path d="M84.1 94.4q5 3 11 3" fill="none" stroke="#ffb592" stroke-width="2" opacity="0.17"/><path d="M106.8 106.2q6 4 12 4" fill="none" stroke="#ffb592" stroke-width="3" opacity="0.17"/><path d="M67.9 75.2q7 -4 13 5" fill="none" stroke="#69283c" stroke-width="1" opacity="0.23"/><path d="M56.8 52.0q8 -3 7 2" fill="none" stroke="#ffb592" stroke-width="2" opacity="0.17"/><path d="M98.9 74.6q9 -2 8 3" fill="none" stroke="#ffb592" stroke-width="3" opacity="0.17"/><path d="M97.6 106.0q10 -1 9 4" fill="none" stroke="#69283c" stroke-width="1" opacity="0.23"/><path d="M55.8 94.9q11 0 10 5" fill="none" stroke="#ffb592" stroke-width="2" opacity="0.17"/><path d="M69.6 59.4q4 1 11 2" fill="none" stroke="#ffb592" stroke-width="3" opacity="0.17"/><path d="M107.2 57.6q5 2 12 3" fill="none" stroke="#69283c" stroke-width="1" opacity="0.23"/><path d="M82.3 92.4q6 3 13 4" fill="none" stroke="#ffb592" stroke-width="2" opacity="0.17"/><path d="M52.1 107.0q7 4 7 5" fill="none" stroke="#ffb592" stroke-width="3" opacity="0.17"/><path d="M85.9 77.5q8 -4 8 2" fill="none" stroke="#69283c" stroke-width="1" opacity="0.23"/><path d="M106.2 52.1q9 -3 9 3" fill="none" stroke="#ffb592" stroke-width="2" opacity="0.17"/><path d="M66.3 72.3q10 -2 10 4" fill="none" stroke="#ffb592" stroke-width="3" opacity="0.17"/><path d="M57.9 105.1q11 -1 11 5" fill="none" stroke="#69283c" stroke-width="1" opacity="0.23"/><path d="M100.3 96.9q4 0 12 2" fill="none" stroke="#ffb592" stroke-width="2" opacity="0.17"/><path d="M96.1 61.1q5 1 13 3" fill="none" stroke="#ffb592" stroke-width="3" opacity="0.17"/><path d="M55.0 56.2q6 2 7 4" fill="none" stroke="#69283c" stroke-width="1" opacity="0.23"/><path d="M71.3 90.2q7 3 8 5" fill="none" stroke="#ffb592" stroke-width="2" opacity="0.17"/><path d="M107.6 107.5q8 4 9 2" fill="none" stroke="#ffb592" stroke-width="3" opacity="0.17"/><path d="M80.5 79.9q9 -4 10 3" fill="none" stroke="#69283c" stroke-width="1" opacity="0.23"/><path d="M52.2 52.5q10 -3 11 4" fill="none" stroke="#ffb592" stroke-width="2" opacity="0.17"/><path d="M87.7 70.0q11 -2 12 5" fill="none" stroke="#ffb592" stroke-width="3" opacity="0.17"/><path d="M105.5 103.9q4 -1 13 2" fill="none" stroke="#69283c" stroke-width="1" opacity="0.23"/><path d="M64.7 98.7q5 0 7 3" fill="none" stroke="#ffb592" stroke-width="2" opacity="0.17"/></g></svg>