<svg xmlns="http://www.w3.org/2000/svg" viewBox="0 0 160 160"><defs><radialGradient id="g"><stop stop-color="#d86a42" stop-opacity=".45"/><stop offset=".55" stop-color="#d86a42" stop-opacity=".13"/><stop offset="1" stop-color="#d86a42" stop-opacity="0"/></radialGradient><radialGradient id="s" cx="35%" cy="28%"><stop stop-color="#ffcea9"/><stop offset=".55" stop-color="#d86a42"/><stop offset="1" stop-color="#75304a"/></radialGradient><clipPath id="c"><circle cx="80" cy="80" r="49"/></clipPath></defs><circle cx="80" cy="80" r="78" fill="url(#g)"/><path d="M31 75Q12 20 73 31M129 82Q155 133 84 129" fill="none" stroke="#d86a42" stroke-width="3" opacity=".6"/><circle cx="80" cy="80" r="49" fill="url(#s)" stroke="#d86a42" stroke-width="1.2"/><g clip-path="url(#c)"><path d="M42.9 48.0q4 -4 7 2" fill="none" stroke="#75304a" stroke-width="1" opacity="0.23"/><path d="M117.2 110.6q5 -3 8 3" fill="none" stroke="#ffcea9" stroke-width="2" opacity="0.17"/><path d="M106.1 123.2q6 -2 9 4" fill="none" stroke="#ffcea9" stroke-width="3" opacity="0.17"/><path d="M35.1 65.2q7 -1 10 5" fill="none" stroke="#75304a" stroke-width="1" opacity="0.23"/><path d="M67.2 31.4q8 0 11 2" fill="none" stroke="#ffcea9" stroke-width="2" opacity="0.17"/><path d="M128.7 77.0q9 1 12 3" fill="none" stroke="#ffcea9" stroke-width="3" opacity="0.17"/><path d="M78.3 127.5q10 2 13 4" fill="none" stroke="#75304a" stroke-width="1" opacity="0.23"/><path d="M31.8 100.4q11 3 7 5" fill="none" stroke="#ffcea9" stroke-width="2" opacity="0.17"/><path d="M96.0 39.9q4 4 8 2" fill="none" stroke="#ffcea9" stroke-width="3" opacity="0.17"/><path d="M123.5 44.9q5 -4 9 3" fill="none" stroke="#75304a" stroke-width="1" opacity="0.23"/><path d="M51.2 107.2q6 -3 10 4" fill="none" stroke="#ffcea9" stroke-width="2" opacity="0.17"/><path d="M45.1 125.0q7 -2 11 5" fill="none" stroke="#ffcea9" stroke-width="3" opacity="0.17"/><path d="M119.2 69.2q8 -1 12 2" fill="none" stroke="#75304a" stroke-width="1" opacity="0.23"/><path d="M103.3 31.0q9 0 13 3" fill="none" stroke="#ffcea9" stroke-width="2" opacity="0.17"/><path d="M33.9 72.8q10 1 7 4" fill="none" stroke="#ffcea9" stroke-width="3" opacity="0.17"/><path d="M70.4 126.3q11 2 8 5" fill="none" stroke="#75304a" stroke-width="1" opacity="0.23"/><path d="M128.9 104.1q4 3 9 2" fill="none" stroke="#ffcea9" stroke-width="2" opacity="0.17"/><path d="M75.1 42.5q5 4 10 3" fill="none" stroke="#ffcea9" stroke-width="3" opacity="0.17"/><path d="M32.5 42.2q6 -4 11 4" fill="none" stroke="#75304a" stroke-width="1" opacity="0.23"/><path d="M99.0 103.7q7 -3 12 5" fill="none" stroke="#ffcea9" stroke-width="2" opacity="0.17"/><path d="M121.9 126.5q8 -2 13 2" fill="none" stroke="#ffcea9" stroke-width="3" opacity="0.17"/><path d="M48.6 73.3q9 -1 7 3" fill="none" stroke="#75304a" stroke-width="1" opacity="0.23"/><path d="M47.4 31.1q10 0 8 4" fill="none" stroke="#ffcea9" stroke-width="2" opacity="0.17"/><path d="M121.0 68.8q11 1 9 5" fill="none" stroke="#ffcea9" stroke-width="3" opacity="0.17"/><path d="M100.4 124.8q4 2 10 2" fill="none" stroke="#75304a" stroke-width="1" opacity="0.23"/><path d="M32.9 107.6q5 3 11 3" fill="none" stroke="#ffcea9" stroke-width="2" opacity="0.17"/><path d="M73.5 45.3q6 4 12 4" fill="none" stroke="#ffcea9" stroke-width="3" opacity="0.17"/><path d="M129.0 39.6q7 -4 13 5" fill="none" stroke="#75304a" stroke-width="1" opacity="0.23"/><path d="M71.9 99.9q8 -3 7 2" fill="none" stroke="#ffcea9" stroke-width="2" opacity="0.17"/><path d="M33.4 127.6q9 -2 8 3" fill="none" stroke="#ffcea9" stroke-width="3" opacity="0.17"/><path d="M101.9 77.5q10 -1 9 4" fill="none" stroke="#75304a" stroke-width="1" opacity="0.23"/><path d="M120.1 31.4q11 0 10 5" fill="none" stroke="#ffcea9" stroke-width="2" opacity="0.17"/><path d="M46.2 64.7q4 1 11 2" fill="none" stroke="#ffcea9" stroke-width="3" opacity="0.17"/><path d="M49.9 123.0q5 2 12 3" fill="none" stroke="#75304a" stroke-width="1" opacity="0.23"/><path d="M122.7 111.0q6 3 13 4" fill="none" stroke="#ffcea9" stroke-width="2" opacity="0.17"/><path d="M97.5 48.3q7 4 7 5" fill="none" stroke="#ffcea9" stroke-width="3" opacity="0.17"/><path d="M32.1 37.4q8 -4 8 2" fill="none" stroke="#75304a" stroke-width="1" opacity="0.23"/><path d="M76.7 96.1q9 -3 9 3" fill="none" stroke="#ffcea9" stroke-width="2" opacity="0.17"/><path d="M128.8 128.4q10 -2 10 4" fill="none" stroke="#ffcea9" stroke-width="3" opacity="0.17"/><path d="M68.8 81.7q11 -1 11 5" fill="none" stroke="#75304a" stroke-width="1" opacity="0.23"/><path d="M34.5 32.2q4 0 12 2" fill="none" stroke="#ffcea9" stroke-width="2" opacity="0.17"/><path d="M104.7 60.8q5 1 13 3" fill="none" stroke="#ffcea9" stroke-width="3" opacity="0.17"/><path d="M118.2 120.8q6 2 7 4" fill="none" stroke="#75304a" stroke-width="1" opacity="0.23"/><path d="M44.0 114.1q7 3 8 5" fill="none" stroke="#ffcea9" stroke-width="2" opacity="0.17"/><path d="M52.5 51.6q8 4 9 2" fill="none" stroke="#ffcea9" stroke-width="3" opacity="0.17"/><path d="M124.2 35.5q9 -4 10 3" fill="none" stroke="#75304a" stroke-width="1" opacity="0.23"/><path d="M94.4 92.1q10 -3 11 4" fill="none" stroke="#ffcea9" stroke-width="2" opacity="0.17"/><path d="M31.5 128.9q11 -2 12 5" fill="none" stroke="#ffcea9" stroke-width="3" opacity="0.17"/><path d="M79.9 85.8q4 -1 13 2" fill="none" stroke="#75304a" stroke-width="1" opacity="0.23"/><path d="M128.5 33.2q5 0 7 3" fill="none" stroke="#ffcea9" stroke-width="2" opacity="0.17"/></g></svg>